<svg width="100pt" height="100pt" version="1.1" viewBox="0 0 100 100" xmlns="http://www.w3.org/2000/svg">
 <path d="m84.457 60.621-13.281-4.8945v-11.344c0-0.86719-0.45312-1.6758-1.1914-2.1289l-17.48-10.738v-6.457h4.6367c1.3828 0 2.5-1.1172 2.5-2.5 0-1.3828-1.1172-2.5-2.5-2.5h-4.6367v-3.4453c0-1.3828-1.1172-2.5-2.5-2.5-1.3828 0-2.5 1.1172-2.5 2.5v3.4453h-4.6367c-1.3828 0-2.5 1.1172-2.5 2.5 0 1.3828 1.1172 2.5 2.5 2.5h4.6367v6.457l-17.48 10.738c-0.74219 0.45312-1.1914 1.2617-1.1914 2.1289v11.344l-13.281 4.8945c-0.98438 0.36328-1.6367 1.2969-1.6367 2.3438v20.414c0 1.3828 1.1172 2.5 2.5 2.5h67.184c1.3828 0 2.5-1.1172 2.5-2.5v-20.414c0-1.0469-0.65234-1.9844-1.6367-2.3438zm-34.457-24.77 16.172 9.9336v35.102h-32.344v-35.102zm-31.09 28.859 9.918-3.6562v19.828h-9.918zm62.18 16.172h-9.918v-19.828l9.918 3.6562z"></path>
 <path d="m50 61.605c4.6875 0 8.5039-3.8125 8.5039-8.5039 0-4.6875-3.8164-8.5039-8.5039-8.5039s-8.5039 3.8125-8.5039 8.5039c0 4.6875 3.8164 8.5039 8.5039 8.5039zm0-12.008c1.9336 0 3.5039 1.5703 3.5039 3.5039 0 1.9297-1.5703 3.5039-3.5039 3.5039s-3.5039-1.5703-3.5039-3.5039c0-1.9297 1.5703-3.5039 3.5039-3.5039z"></path>
</svg>