<svg width="100pt" height="100pt" version="1.1" viewBox="0 0 100 100" xmlns="http://www.w3.org/2000/svg">
 <path d="m76.398 2.5c-4.3984 0-8.6992 1.6016-12.098 4.5-3.3008 2.8984-5.5 6.8984-6.1016 11.301h-47.801c-1.3984 0-2.6992 0.60156-3.6992 1.5-1 1-1.5 2.3008-1.5 3.6992v3.1016c0 1.3984 0.60156 2.6992 1.5 3.6992l31.699 31.699c0.30078 0.30078 0.69922 0.5 1.1016 0.69922v29.398l-21.199 0.003906c-1.5 0-2.6016 1.1992-2.6016 2.6016 0 1.5 1.1992 2.6016 2.6016 2.6016h47.5c1.5 0 2.6016-1.1992 2.6016-2.6016 0-1.5-1.1992-2.6016-2.6016-2.6016h-21.102v-29.301c0.39844-0.19922 0.80078-0.39844 1.1016-0.69922l23.898-23.898c5.1016 2 10.898 1.6016 15.602-1.1016 4.8008-2.6992 8.1016-7.3008 9.1992-12.699 1-5.3984-0.39844-11-4-15.199-3.3984-4.3047-8.6016-6.7031-14.102-6.7031zm-10.098 31.699h-48.402l-7.5-7.5v-3.1016h63.301v3.1016z"></path>
</svg>