<svg width="100pt" height="100pt" version="1.1" viewBox="0 0 100 100" xmlns="http://www.w3.org/2000/svg">
 <path d="m9.7422 43.477-3.8516-16.59c-1.1016-4.75 1.707-9.6172 6.3945-11.082 2.7422-0.85938 5.5352-1.6836 8.3047-2.4531 1-0.27734 1.5859-1.3164 1.3047-2.3164-0.27734-1-1.3164-1.5859-2.3164-1.3047-2.8047 0.78125-5.6367 1.6172-8.418 2.4883-6.5898 2.0586-10.488 8.8125-8.9297 15.52l3.8516 16.59c1.7969 7.7305 5.5508 14.941 10.855 20.852 0.69531 0.77344 1.8828 0.83594 2.6523 0.14453 0.77344-0.69141 0.83594-1.8828 0.14453-2.6523-4.8828-5.4414-8.3398-12.078-9.9922-19.195z"></path>
 <path d="m30.621 49.59c-0.64453-0.21875-1.3594-0.070313-1.8672 0.38672-0.50391 0.45703-0.72266 1.1523-0.57031 1.8164 1.918 8.2656 10.355 13.363 18.723 11.117 7.6562-2.0547 12.582-9.8867 10.727-17.887-0.15234-0.66406-0.65625-1.1914-1.3086-1.3789-0.65234-0.1875-1.3594-0.007812-1.8438 0.46875-1.3828 1.3711-5.2461 4.7109-11.16 6.1328-6.3086 1.5117-11.121-0.12109-12.699-0.65625zm23.617-0.36328c-0.33984 4.7188-3.7148 9.0117-8.7734 10.172-4.6211 1.0625-9.6797-0.83203-12.305-5.25 7.5664 1.457 15.07-0.53125 21.078-4.9219z"></path>
 <path d="m27.16 33.711c0.71094 0.75391 1.9023 0.78906 2.6562 0.074218 0.75391-0.71094 0.78906-1.9023 0.074219-2.6562-2.3398-2.4766-5.8281-3.5312-9.1055-2.75-4.2227 1.0039-6.3906 4.6523-6.9492 6.4414-0.30859 0.99219 0.24219 2.0547 1.2344 2.3633 0.98828 0.30859 2.0391-0.23047 2.3516-1.2266 0.011719-0.03125 1.1016-3.1758 4.2344-3.9219 2.0039-0.47656 4.0625 0.14844 5.5039 1.6758z"></path>
 <path d="m50.574 28.344c0.011719-0.03125 1.1016-3.1758 4.2344-3.9219 2.0039-0.47656 4.0625 0.14844 5.5039 1.6758 0.71094 0.75391 1.9023 0.78906 2.6562 0.074219 0.75391-0.71094 0.78906-1.9023 0.074219-2.6562-2.3398-2.4766-5.8281-3.5312-9.1055-2.75-4.2188 1.0039-6.3906 4.6523-6.9492 6.4414-0.30859 0.99219 0.24219 2.0547 1.2305 2.3633 0.99609 0.30859 2.0469-0.23047 2.3555-1.2266z"></path>
 <path d="m86.82 25.883c-4.457-0.66016-9.043-1.2227-13.648-1.6797l-2.8125-12.113c-1.5508-6.6836-8.0117-11.07-14.863-10.047-9.6641 1.4453-19.496 3.4453-28.602 5.75-1.0078 0.25391-1.6172 1.2773-1.3594 2.2812 0.25391 1.0078 1.2773 1.6172 2.2812 1.3594 8.9727-2.2695 18.684-4.25 28.234-5.6758 4.8672-0.72656 9.543 2.4297 10.645 7.1797l3.8516 16.59c3.6445 15.699-1.6836 32.031-13.898 42.617-4.4414 3.8398-10.332 5-15.621 3.5859-5.8438-1.5625-11.297-4.3008-16.062-8.1172-0.80859-0.64844-1.9922-0.51953-2.6406 0.29297-0.64844 0.80859-0.51562 1.9922 0.29297 2.6406 2.9297 2.3438 6.0859 4.3125 9.4414 5.8906 3.9102 7.7617 9.8672 14.285 17.27 18.898 4.2461 2.6445 11.801 3.9219 19.336 1.4219 7.1523-2.375 13.699-7.6758 19.465-15.75 0.60156-0.84375 0.40625-2.0195-0.4375-2.6211-0.84375-0.60156-2.0195-0.40625-2.6211 0.4375-5.293 7.4141-11.211 12.246-17.59 14.367-9.3398 3.1016-16.098-1.0039-16.164-1.0469-5.5391-3.4492-10.199-8.0625-13.68-13.504 0.79688 0.25781 1.6055 0.49609 2.4219 0.71484 4.0156 1.0742 8.3398 0.94922 12.398-0.49609 2.6523 1.8633 5.7227 2.7344 8.582 2.7344 2.1523 0 6.3203-0.47656 10.023-3.6797 4.3945-3.7969 5.0625-8.8477 5.1641-10.305 0.046876-0.67969-0.27734-1.332-0.84766-1.7031-0.57031-0.37109-1.2969-0.40625-1.9023-0.089844-1.1055 0.58203-3.9492 2.0742-8.0664 2.5469 4.6211-5.8984 7.7305-12.754 9.1484-19.992 1.4062-0.88281 3.4023-1.4102 5.0039-1.2852 3.2148 0.25 4.7891 3.1875 4.7969 3.2031 0.32812 0.66016 0.99219 1.043 1.6836 1.043 1.3789 0 2.3086-1.457 1.6797-2.7188-0.097656-0.19922-2.4766-4.8555-7.8711-5.2734-1.4844-0.11719-3.1211 0.12109-4.6484 0.625 0.86719-8.8086-1.0664-15.395-1.1406-15.898 4.1211 0.42578 8.2148 0.9375 12.203 1.5273 4.8633 0.71875 8.4023 5.0898 8.0625 9.9531l-1.1953 16.988c-0.39453 5.6289-1.8594 11.051-4.3516 16.105-0.46094 0.92969-0.078125 2.0586 0.85547 2.5156 0.92969 0.45703 2.0586 0.078125 2.5156-0.85547 2.7109-5.4961 4.3008-11.387 4.7305-17.504l1.1953-16.988c0.48438-6.8516-4.4219-12.918-11.258-13.926zm-15.141 44.855c-2.4688 6.1797-9.4961 8.625-15.125 6.1445 1.9883-1.2461 3.8086-2.9336 5.457-4.6211 4.0156 0.12891 7.3047-0.66797 9.668-1.5234z"></path>
</svg>