<svg width="100pt" height="100pt" version="1.1" viewBox="0 0 100 100" xmlns="http://www.w3.org/2000/svg">
 <path d="m13.066 21.688c-3.7812 0-6.8711 3.0938-6.8711 6.875v48.191c0 0.85938 0.69531 1.5547 1.5547 1.5586h10.637c0.85547-0.003906 1.5508-0.69922 1.5547-1.5586v-7.75h60.105v7.75c0.003906 0.86328 0.70312 1.5586 1.5664 1.5586h10.625c0.86328 0 1.5664-0.69531 1.5664-1.5586v-33.148c0-3.7812-3.1016-6.8867-6.8828-6.8867s-6.875 3.1055-6.875 6.8867v7.1133h-38.641v-0.097656c0-5.8672-4.7734-10.637-10.641-10.637h-10.824v-11.418c0-3.7812-3.0938-6.875-6.875-6.875zm0 3.1172c2.1055 0 3.75 1.6562 3.75 3.7578v46.621l-7.4961 0.003906v-46.621c0-2.1055 1.6445-3.7578 3.7461-3.7578zm73.855 15.039c2.1055 0 3.7578 1.6602 3.7578 3.7617v31.582h-7.5078v-31.582c0-2.1055 1.6445-3.7617 3.75-3.7617zm-66.973 3.2617h10.816c4.1914 0 7.5156 3.3242 7.5156 7.5156v0.089844h-18.332zm-0.007813 10.742h60.105v12.031h-60.105z"></path>
</svg>